<?xml version="1.0" encoding="utf-8" standalone="no"?>
<!DOCTYPE svg PUBLIC "-//W3C//DTD SVG 1.1//EN"
  "http://www.w3.org/Graphics/SVG/1.1/DTD/svg11.dtd">
<!-- Created with matplotlib (https://matplotlib.org/) -->
<svg height="343.264875pt" version="1.1" viewBox="0 0 548.862834 343.264875" width="548.862834pt" xmlns="http://www.w3.org/2000/svg" xmlns:xlink="http://www.w3.org/1999/xlink">
 <metadata>
  <rdf:RDF xmlns:cc="http://creativecommons.org/ns#" xmlns:dc="http://purl.org/dc/elements/1.1/" xmlns:rdf="http://www.w3.org/1999/02/22-rdf-syntax-ns#">
   <cc:Work>
    <dc:type rdf:resource="http://purl.org/dc/dcmitype/StillImage"/>
    <dc:date>2024-05-09T20:52:42.101160</dc:date>
    <dc:format>image/svg+xml</dc:format>
    <dc:creator>
     <cc:Agent>
      <dc:title>Matplotlib v3.3.4, https://matplotlib.org/</dc:title>
     </cc:Agent>
    </dc:creator>
   </cc:Work>
  </rdf:RDF>
 </metadata>
 <defs>
  <style type="text/css">*{stroke-linecap:butt;stroke-linejoin:round;}</style>
 </defs>
 <g id="figure_1">
  <g id="patch_1">
   <path d="M 0 343.264875 
L 548.862834 343.264875 
L 548.862834 0 
L 0 0 
z
" style="fill:#ffffff;"/>
  </g>
  <g id="axes_1">
   <g id="patch_2">
    <path d="M 85.05 303.01375 
L 531.45 303.01375 
L 531.45 25.81375 
L 85.05 25.81375 
z
" style="fill:#ffffff;"/>
   </g>
   <g id="line2d_1">
    <path clip-path="url(#pa753674aa5)" d="M 265.265762 105.119632 
L 265.265762 38.41375 
" style="fill:none;stroke:#bbbbbb;stroke-dasharray:1.85,0.8;stroke-dashoffset:0;stroke-width:0.5;"/>
   </g>
   <g id="line2d_2">
    <path clip-path="url(#pa753674aa5)" d="M 371.323245 142.178456 
L 371.323245 75.472574 
" style="fill:none;stroke:#bbbbbb;stroke-dasharray:1.85,0.8;stroke-dashoffset:0;stroke-width:0.5;"/>
   </g>
   <g id="line2d_3">
    <path clip-path="url(#pa753674aa5)" d="M 465.30269 179.237279 
L 465.30269 112.531397 
" style="fill:none;stroke:#bbbbbb;stroke-dasharray:1.85,0.8;stroke-dashoffset:0;stroke-width:0.5;"/>
   </g>
   <g id="line2d_4">
    <path clip-path="url(#pa753674aa5)" d="M 85.05 275.590221 
L 531.45 275.590221 
" style="fill:none;stroke:#cccccc;stroke-dasharray:0.5,2.5;stroke-dashoffset:0;stroke-width:0.5;"/>
   </g>
   <g id="line2d_5">
    <path clip-path="url(#pa753674aa5)" d="M 85.05 238.531397 
L 531.45 238.531397 
" style="fill:none;stroke:#cccccc;stroke-dasharray:0.5,2.5;stroke-dashoffset:0;stroke-width:0.5;"/>
   </g>
   <g id="line2d_6">
    <path clip-path="url(#pa753674aa5)" d="M 85.05 201.472574 
L 531.45 201.472574 
" style="fill:none;stroke:#cccccc;stroke-dasharray:0.5,2.5;stroke-dashoffset:0;stroke-width:0.5;"/>
   </g>
   <g id="line2d_7">
    <path clip-path="url(#pa753674aa5)" d="M 85.05 164.41375 
L 531.45 164.41375 
" style="fill:none;stroke:#cccccc;stroke-dasharray:0.5,2.5;stroke-dashoffset:0;stroke-width:0.5;"/>
   </g>
   <g id="line2d_8">
    <path clip-path="url(#pa753674aa5)" d="M 85.05 127.354926 
L 531.45 127.354926 
" style="fill:none;stroke:#cccccc;stroke-dasharray:0.5,2.5;stroke-dashoffset:0;stroke-width:0.5;"/>
   </g>
   <g id="line2d_9">
    <path clip-path="url(#pa753674aa5)" d="M 85.05 90.296103 
L 531.45 90.296103 
" style="fill:none;stroke:#cccccc;stroke-dasharray:0.5,2.5;stroke-dashoffset:0;stroke-width:0.5;"/>
   </g>
   <g id="line2d_10">
    <path clip-path="url(#pa753674aa5)" d="M 85.05 53.237279 
L 531.45 53.237279 
" style="fill:none;stroke:#cccccc;stroke-dasharray:0.5,2.5;stroke-dashoffset:0;stroke-width:0.5;"/>
   </g>
   <g id="line2d_11">
    <path clip-path="url(#pa753674aa5)" d="M 465.08117 303.01375 
L 465.08117 263.41375 
" style="fill:none;stroke:#bbbbbb;stroke-dasharray:1.85,0.8;stroke-dashoffset:0;stroke-width:0.5;"/>
   </g>
   <g id="line2d_12">
    <path clip-path="url(#pa753674aa5)" d="M 141.931075 303.01375 
L 141.931075 25.81375 
" style="fill:none;stroke:#bbbbbb;stroke-dasharray:1.85,0.8;stroke-dashoffset:0;stroke-width:0.5;"/>
   </g>
   <g id="patch_3">
    <path clip-path="url(#pa753674aa5)" d="M 388.612679 179.237279 
L 501.89285 179.237279 
L 501.89285 149.590221 
L 388.612679 149.590221 
z
" style="fill:none;opacity:0;"/>
   </g>
   <g id="patch_4">
    <path clip-path="url(#pa753674aa5)" d="M 461.754791 290.41375 
L 511.159091 290.41375 
L 511.159091 260.766691 
L 461.754791 260.766691 
z
" style="fill:none;opacity:0;"/>
   </g>
   <g id="patch_5">
    <path clip-path="url(#pa753674aa5)" d="M 268.592141 68.060809 
L 105.340909 68.060809 
L 105.340909 38.41375 
L 268.592141 38.41375 
z
" style="fill:none;opacity:0;"/>
   </g>
   <g id="patch_6">
    <path clip-path="url(#pa753674aa5)" d="M 374.649623 105.119632 
L 228.675596 105.119632 
L 228.675596 75.472574 
L 374.649623 75.472574 
z
" style="fill:none;opacity:0;"/>
   </g>
   <g id="patch_7">
    <path clip-path="url(#pa753674aa5)" d="M 468.629068 142.178456 
L 334.733099 142.178456 
L 334.733099 112.531397 
L 468.629068 112.531397 
z
" style="fill:none;opacity:0;"/>
   </g>
   <g id="patch_8">
    <path clip-path="url(#pa753674aa5)" d="M 437.496924 216.296103 
L 355.348892 216.296103 
L 355.348892 186.649044 
L 437.496924 186.649044 
z
" style="fill:none;opacity:0;"/>
   </g>
   <g id="patch_9">
    <path clip-path="url(#pa753674aa5)" d="M 477.895324 253.354926 
L 397.580379 253.354926 
L 397.580379 223.707868 
L 477.895324 223.707868 
z
" style="fill:none;opacity:0;"/>
   </g>
   <g id="patch_10">
    <path clip-path="url(#pa753674aa5)" d="M 465.302685 164.41375 
L 459.542685 179.237279 
L 459.542685 179.237279 
L 391.939057 179.237279 
L 391.939057 149.590221 
L 459.542685 149.590221 
L 459.542685 149.590221 
z
" style="fill:#ff0051;stroke:#ff0051;stroke-linejoin:miter;"/>
   </g>
   <g id="patch_11">
    <path clip-path="url(#pa753674aa5)" d="M 474.568925 275.590221 
L 468.808925 290.41375 
L 468.808925 290.41375 
L 465.08117 290.41375 
L 465.08117 260.766691 
L 468.808925 260.766691 
L 468.808925 260.766691 
z
" style="fill:#ff0051;stroke:#ff0051;stroke-linejoin:miter;"/>
   </g>
   <g id="patch_12">
    <path clip-path="url(#pa753674aa5)" d="M 141.931075 53.237279 
L 147.691075 38.41375 
L 147.691075 38.41375 
L 265.265762 38.41375 
L 265.265762 68.060809 
L 147.691075 68.060809 
L 147.691075 68.060809 
z
" style="fill:#008bfb;stroke:#008bfb;stroke-linejoin:miter;"/>
   </g>
   <g id="patch_13">
    <path clip-path="url(#pa753674aa5)" d="M 265.265762 90.296103 
L 271.025762 75.472574 
L 271.025762 75.472574 
L 371.323245 75.472574 
L 371.323245 105.119632 
L 271.025762 105.119632 
L 271.025762 105.119632 
z
" style="fill:#008bfb;stroke:#008bfb;stroke-linejoin:miter;"/>
   </g>
   <g id="patch_14">
    <path clip-path="url(#pa753674aa5)" d="M 371.323265 127.354926 
L 377.083265 112.531397 
L 377.083265 112.531397 
L 465.30269 112.531397 
L 465.30269 142.178456 
L 377.083265 142.178456 
L 377.083265 142.178456 
z
" style="fill:#008bfb;stroke:#008bfb;stroke-linejoin:miter;"/>
   </g>
   <g id="patch_15">
    <path clip-path="url(#pa753674aa5)" d="M 391.939057 201.472574 
L 397.699057 186.649044 
L 397.699057 186.649044 
L 434.170545 186.649044 
L 434.170545 216.296103 
L 397.699057 216.296103 
L 397.699057 216.296103 
z
" style="fill:#008bfb;stroke:#008bfb;stroke-linejoin:miter;"/>
   </g>
   <g id="patch_16">
    <path clip-path="url(#pa753674aa5)" d="M 434.170545 238.531397 
L 439.930545 223.707868 
L 439.930545 223.707868 
L 474.568945 223.707868 
L 474.568945 253.354926 
L 439.930545 253.354926 
L 439.930545 253.354926 
z
" style="fill:#008bfb;stroke:#008bfb;stroke-linejoin:miter;"/>
   </g>
   <g id="matplotlib.axis_1">
    <g id="xtick_1">
     <g id="line2d_13">
      <defs>
       <path d="M 0 0 
L 0 3.5 
" id="m7c7223fec1" style="stroke:#000000;stroke-width:0.8;"/>
      </defs>
      <g>
       <use style="stroke:#000000;stroke-width:0.8;" x="130.985961" xlink:href="#m7c7223fec1" y="303.01375"/>
      </g>
     </g>
     <g id="text_1">
      <!-- 0.0 -->
      <g transform="translate(120.648929 319.891719)scale(0.13 -0.13)">
       <defs>
        <path d="M 31.78125 66.40625 
Q 24.171875 66.40625 20.328125 58.90625 
Q 16.5 51.421875 16.5 36.375 
Q 16.5 21.390625 20.328125 13.890625 
Q 24.171875 6.390625 31.78125 6.390625 
Q 39.453125 6.390625 43.28125 13.890625 
Q 47.125 21.390625 47.125 36.375 
Q 47.125 51.421875 43.28125 58.90625 
Q 39.453125 66.40625 31.78125 66.40625 
z
M 31.78125 74.21875 
Q 44.046875 74.21875 50.515625 64.515625 
Q 56.984375 54.828125 56.984375 36.375 
Q 56.984375 17.96875 50.515625 8.265625 
Q 44.046875 -1.421875 31.78125 -1.421875 
Q 19.53125 -1.421875 13.0625 8.265625 
Q 6.59375 17.96875 6.59375 36.375 
Q 6.59375 54.828125 13.0625 64.515625 
Q 19.53125 74.21875 31.78125 74.21875 
z
" id="DejaVuSans-48"/>
        <path d="M 10.6875 12.40625 
L 21 12.40625 
L 21 0 
L 10.6875 0 
z
" id="DejaVuSans-46"/>
       </defs>
       <use xlink:href="#DejaVuSans-48"/>
       <use x="63.623047" xlink:href="#DejaVuSans-46"/>
       <use x="95.410156" xlink:href="#DejaVuSans-48"/>
      </g>
     </g>
    </g>
    <g id="xtick_2">
     <g id="line2d_14">
      <g>
       <use style="stroke:#000000;stroke-width:0.8;" x="197.709268" xlink:href="#m7c7223fec1" y="303.01375"/>
      </g>
     </g>
     <g id="text_2">
      <!-- 0.1 -->
      <g transform="translate(187.372236 319.891719)scale(0.13 -0.13)">
       <defs>
        <path d="M 12.40625 8.296875 
L 28.515625 8.296875 
L 28.515625 63.921875 
L 10.984375 60.40625 
L 10.984375 69.390625 
L 28.421875 72.90625 
L 38.28125 72.90625 
L 38.28125 8.296875 
L 54.390625 8.296875 
L 54.390625 0 
L 12.40625 0 
z
" id="DejaVuSans-49"/>
       </defs>
       <use xlink:href="#DejaVuSans-48"/>
       <use x="63.623047" xlink:href="#DejaVuSans-46"/>
       <use x="95.410156" xlink:href="#DejaVuSans-49"/>
      </g>
     </g>
    </g>
    <g id="xtick_3">
     <g id="line2d_15">
      <g>
       <use style="stroke:#000000;stroke-width:0.8;" x="264.432575" xlink:href="#m7c7223fec1" y="303.01375"/>
      </g>
     </g>
     <g id="text_3">
      <!-- 0.2 -->
      <g transform="translate(254.095543 319.891719)scale(0.13 -0.13)">
       <defs>
        <path d="M 19.1875 8.296875 
L 53.609375 8.296875 
L 53.609375 0 
L 7.328125 0 
L 7.328125 8.296875 
Q 12.9375 14.109375 22.625 23.890625 
Q 32.328125 33.6875 34.8125 36.53125 
Q 39.546875 41.84375 41.421875 45.53125 
Q 43.3125 49.21875 43.3125 52.78125 
Q 43.3125 58.59375 39.234375 62.25 
Q 35.15625 65.921875 28.609375 65.921875 
Q 23.96875 65.921875 18.8125 64.3125 
Q 13.671875 62.703125 7.8125 59.421875 
L 7.8125 69.390625 
Q 13.765625 71.78125 18.9375 73 
Q 24.125 74.21875 28.421875 74.21875 
Q 39.75 74.21875 46.484375 68.546875 
Q 53.21875 62.890625 53.21875 53.421875 
Q 53.21875 48.921875 51.53125 44.890625 
Q 49.859375 40.875 45.40625 35.40625 
Q 44.1875 33.984375 37.640625 27.21875 
Q 31.109375 20.453125 19.1875 8.296875 
z
" id="DejaVuSans-50"/>
       </defs>
       <use xlink:href="#DejaVuSans-48"/>
       <use x="63.623047" xlink:href="#DejaVuSans-46"/>
       <use x="95.410156" xlink:href="#DejaVuSans-50"/>
      </g>
     </g>
    </g>
    <g id="xtick_4">
     <g id="line2d_16">
      <g>
       <use style="stroke:#000000;stroke-width:0.8;" x="331.155882" xlink:href="#m7c7223fec1" y="303.01375"/>
      </g>
     </g>
     <g id="text_4">
      <!-- 0.3 -->
      <g transform="translate(320.81885 319.891719)scale(0.13 -0.13)">
       <defs>
        <path d="M 40.578125 39.3125 
Q 47.65625 37.796875 51.625 33 
Q 55.609375 28.21875 55.609375 21.1875 
Q 55.609375 10.40625 48.1875 4.484375 
Q 40.765625 -1.421875 27.09375 -1.421875 
Q 22.515625 -1.421875 17.65625 -0.515625 
Q 12.796875 0.390625 7.625 2.203125 
L 7.625 11.71875 
Q 11.71875 9.328125 16.59375 8.109375 
Q 21.484375 6.890625 26.8125 6.890625 
Q 36.078125 6.890625 40.9375 10.546875 
Q 45.796875 14.203125 45.796875 21.1875 
Q 45.796875 27.640625 41.28125 31.265625 
Q 36.765625 34.90625 28.71875 34.90625 
L 20.21875 34.90625 
L 20.21875 43.015625 
L 29.109375 43.015625 
Q 36.375 43.015625 40.234375 45.921875 
Q 44.09375 48.828125 44.09375 54.296875 
Q 44.09375 59.90625 40.109375 62.90625 
Q 36.140625 65.921875 28.71875 65.921875 
Q 24.65625 65.921875 20.015625 65.03125 
Q 15.375 64.15625 9.8125 62.3125 
L 9.8125 71.09375 
Q 15.4375 72.65625 20.34375 73.4375 
Q 25.25 74.21875 29.59375 74.21875 
Q 40.828125 74.21875 47.359375 69.109375 
Q 53.90625 64.015625 53.90625 55.328125 
Q 53.90625 49.265625 50.4375 45.09375 
Q 46.96875 40.921875 40.578125 39.3125 
z
" id="DejaVuSans-51"/>
       </defs>
       <use xlink:href="#DejaVuSans-48"/>
       <use x="63.623047" xlink:href="#DejaVuSans-46"/>
       <use x="95.410156" xlink:href="#DejaVuSans-51"/>
      </g>
     </g>
    </g>
    <g id="xtick_5">
     <g id="line2d_17">
      <g>
       <use style="stroke:#000000;stroke-width:0.8;" x="397.879189" xlink:href="#m7c7223fec1" y="303.01375"/>
      </g>
     </g>
     <g id="text_5">
      <!-- 0.4 -->
      <g transform="translate(387.542157 319.891719)scale(0.13 -0.13)">
       <defs>
        <path d="M 37.796875 64.3125 
L 12.890625 25.390625 
L 37.796875 25.390625 
z
M 35.203125 72.90625 
L 47.609375 72.90625 
L 47.609375 25.390625 
L 58.015625 25.390625 
L 58.015625 17.1875 
L 47.609375 17.1875 
L 47.609375 0 
L 37.796875 0 
L 37.796875 17.1875 
L 4.890625 17.1875 
L 4.890625 26.703125 
z
" id="DejaVuSans-52"/>
       </defs>
       <use xlink:href="#DejaVuSans-48"/>
       <use x="63.623047" xlink:href="#DejaVuSans-46"/>
       <use x="95.410156" xlink:href="#DejaVuSans-52"/>
      </g>
     </g>
    </g>
    <g id="xtick_6">
     <g id="line2d_18">
      <g>
       <use style="stroke:#000000;stroke-width:0.8;" x="464.602496" xlink:href="#m7c7223fec1" y="303.01375"/>
      </g>
     </g>
     <g id="text_6">
      <!-- 0.5 -->
      <g transform="translate(454.265464 319.891719)scale(0.13 -0.13)">
       <defs>
        <path d="M 10.796875 72.90625 
L 49.515625 72.90625 
L 49.515625 64.59375 
L 19.828125 64.59375 
L 19.828125 46.734375 
Q 21.96875 47.46875 24.109375 47.828125 
Q 26.265625 48.1875 28.421875 48.1875 
Q 40.625 48.1875 47.75 41.5 
Q 54.890625 34.8125 54.890625 23.390625 
Q 54.890625 11.625 47.5625 5.09375 
Q 40.234375 -1.421875 26.90625 -1.421875 
Q 22.3125 -1.421875 17.546875 -0.640625 
Q 12.796875 0.140625 7.71875 1.703125 
L 7.71875 11.625 
Q 12.109375 9.234375 16.796875 8.0625 
Q 21.484375 6.890625 26.703125 6.890625 
Q 35.15625 6.890625 40.078125 11.328125 
Q 45.015625 15.765625 45.015625 23.390625 
Q 45.015625 31 40.078125 35.4375 
Q 35.15625 39.890625 26.703125 39.890625 
Q 22.75 39.890625 18.8125 39.015625 
Q 14.890625 38.140625 10.796875 36.28125 
z
" id="DejaVuSans-53"/>
       </defs>
       <use xlink:href="#DejaVuSans-48"/>
       <use x="63.623047" xlink:href="#DejaVuSans-46"/>
       <use x="95.410156" xlink:href="#DejaVuSans-53"/>
      </g>
     </g>
    </g>
    <g id="xtick_7">
     <g id="line2d_19">
      <g>
       <use style="stroke:#000000;stroke-width:0.8;" x="531.325803" xlink:href="#m7c7223fec1" y="303.01375"/>
      </g>
     </g>
     <g id="text_7">
      <!-- 0.6 -->
      <g transform="translate(520.988771 319.891719)scale(0.13 -0.13)">
       <defs>
        <path d="M 33.015625 40.375 
Q 26.375 40.375 22.484375 35.828125 
Q 18.609375 31.296875 18.609375 23.390625 
Q 18.609375 15.53125 22.484375 10.953125 
Q 26.375 6.390625 33.015625 6.390625 
Q 39.65625 6.390625 43.53125 10.953125 
Q 47.40625 15.53125 47.40625 23.390625 
Q 47.40625 31.296875 43.53125 35.828125 
Q 39.65625 40.375 33.015625 40.375 
z
M 52.59375 71.296875 
L 52.59375 62.3125 
Q 48.875 64.0625 45.09375 64.984375 
Q 41.3125 65.921875 37.59375 65.921875 
Q 27.828125 65.921875 22.671875 59.328125 
Q 17.53125 52.734375 16.796875 39.40625 
Q 19.671875 43.65625 24.015625 45.921875 
Q 28.375 48.1875 33.59375 48.1875 
Q 44.578125 48.1875 50.953125 41.515625 
Q 57.328125 34.859375 57.328125 23.390625 
Q 57.328125 12.15625 50.6875 5.359375 
Q 44.046875 -1.421875 33.015625 -1.421875 
Q 20.359375 -1.421875 13.671875 8.265625 
Q 6.984375 17.96875 6.984375 36.375 
Q 6.984375 53.65625 15.1875 63.9375 
Q 23.390625 74.21875 37.203125 74.21875 
Q 40.921875 74.21875 44.703125 73.484375 
Q 48.484375 72.75 52.59375 71.296875 
z
" id="DejaVuSans-54"/>
       </defs>
       <use xlink:href="#DejaVuSans-48"/>
       <use x="63.623047" xlink:href="#DejaVuSans-46"/>
       <use x="95.410156" xlink:href="#DejaVuSans-54"/>
      </g>
     </g>
    </g>
   </g>
   <g id="matplotlib.axis_2">
    <g id="ytick_1">
     <g id="text_8">
      <!-- 30.77 = $v_3$ -->
      <g style="fill:#999999;" transform="translate(9.02 280.529205)scale(0.13 -0.13)">
       <defs>
        <path d="M 8.203125 72.90625 
L 55.078125 72.90625 
L 55.078125 68.703125 
L 28.609375 0 
L 18.3125 0 
L 43.21875 64.59375 
L 8.203125 64.59375 
z
" id="DejaVuSans-55"/>
        <path id="DejaVuSans-32"/>
        <path d="M 10.59375 45.40625 
L 73.1875 45.40625 
L 73.1875 37.203125 
L 10.59375 37.203125 
z
M 10.59375 25.484375 
L 73.1875 25.484375 
L 73.1875 17.1875 
L 10.59375 17.1875 
z
" id="DejaVuSans-61"/>
        <path d="M 7.171875 54.6875 
L 16.703125 54.6875 
L 24.703125 8.203125 
L 50.875 54.6875 
L 60.40625 54.6875 
L 29.296875 0 
L 17.1875 0 
z
" id="DejaVuSans-Oblique-118"/>
       </defs>
       <use transform="translate(0 0.78125)" xlink:href="#DejaVuSans-51"/>
       <use transform="translate(63.623047 0.78125)" xlink:href="#DejaVuSans-48"/>
       <use transform="translate(127.246094 0.78125)" xlink:href="#DejaVuSans-46"/>
       <use transform="translate(151.283203 0.78125)" xlink:href="#DejaVuSans-55"/>
       <use transform="translate(213.15625 0.78125)" xlink:href="#DejaVuSans-55"/>
       <use transform="translate(276.779297 0.78125)" xlink:href="#DejaVuSans-32"/>
       <use transform="translate(308.566406 0.78125)" xlink:href="#DejaVuSans-61"/>
       <use transform="translate(392.355469 0.78125)" xlink:href="#DejaVuSans-32"/>
       <use transform="translate(424.142578 0.78125)" xlink:href="#DejaVuSans-Oblique-118"/>
       <use transform="translate(483.322266 -15.625)scale(0.7)" xlink:href="#DejaVuSans-51"/>
      </g>
     </g>
    </g>
    <g id="ytick_2">
     <g id="text_9">
      <!-- 58.35 = $d_1$ -->
      <g style="fill:#999999;" transform="translate(7.2 243.470381)scale(0.13 -0.13)">
       <defs>
        <path d="M 31.78125 34.625 
Q 24.75 34.625 20.71875 30.859375 
Q 16.703125 27.09375 16.703125 20.515625 
Q 16.703125 13.921875 20.71875 10.15625 
Q 24.75 6.390625 31.78125 6.390625 
Q 38.8125 6.390625 42.859375 10.171875 
Q 46.921875 13.96875 46.921875 20.515625 
Q 46.921875 27.09375 42.890625 30.859375 
Q 38.875 34.625 31.78125 34.625 
z
M 21.921875 38.8125 
Q 15.578125 40.375 12.03125 44.71875 
Q 8.5 49.078125 8.5 55.328125 
Q 8.5 64.0625 14.71875 69.140625 
Q 20.953125 74.21875 31.78125 74.21875 
Q 42.671875 74.21875 48.875 69.140625 
Q 55.078125 64.0625 55.078125 55.328125 
Q 55.078125 49.078125 51.53125 44.71875 
Q 48 40.375 41.703125 38.8125 
Q 48.828125 37.15625 52.796875 32.3125 
Q 56.78125 27.484375 56.78125 20.515625 
Q 56.78125 9.90625 50.3125 4.234375 
Q 43.84375 -1.421875 31.78125 -1.421875 
Q 19.734375 -1.421875 13.25 4.234375 
Q 6.78125 9.90625 6.78125 20.515625 
Q 6.78125 27.484375 10.78125 32.3125 
Q 14.796875 37.15625 21.921875 38.8125 
z
M 18.3125 54.390625 
Q 18.3125 48.734375 21.84375 45.5625 
Q 25.390625 42.390625 31.78125 42.390625 
Q 38.140625 42.390625 41.71875 45.5625 
Q 45.3125 48.734375 45.3125 54.390625 
Q 45.3125 60.0625 41.71875 63.234375 
Q 38.140625 66.40625 31.78125 66.40625 
Q 25.390625 66.40625 21.84375 63.234375 
Q 18.3125 60.0625 18.3125 54.390625 
z
" id="DejaVuSans-56"/>
        <path d="M 41.796875 8.203125 
Q 38.1875 3.46875 33.25 1.015625 
Q 28.328125 -1.421875 22.3125 -1.421875 
Q 14.109375 -1.421875 9.34375 4.171875 
Q 4.59375 9.765625 4.59375 19.484375 
Q 4.59375 27.59375 7.46875 34.9375 
Q 10.359375 42.28125 15.828125 48.09375 
Q 19.4375 51.953125 23.96875 53.96875 
Q 28.515625 56 33.5 56 
Q 38.765625 56 42.796875 53.453125 
Q 46.828125 50.921875 49.03125 46.1875 
L 54.890625 75.984375 
L 63.921875 75.984375 
L 49.125 0 
L 40.09375 0 
z
M 13.921875 21.09375 
Q 13.921875 14.015625 17.109375 10.0625 
Q 20.3125 6.109375 25.984375 6.109375 
Q 30.171875 6.109375 33.765625 8.125 
Q 37.359375 10.15625 40.09375 14.109375 
Q 42.96875 18.21875 44.625 23.578125 
Q 46.296875 28.953125 46.296875 34.1875 
Q 46.296875 40.96875 43.09375 44.765625 
Q 39.890625 48.578125 34.28125 48.578125 
Q 30.03125 48.578125 26.359375 46.578125 
Q 22.703125 44.578125 20.125 40.828125 
Q 17.28125 36.765625 15.59375 31.390625 
Q 13.921875 26.03125 13.921875 21.09375 
z
" id="DejaVuSans-Oblique-100"/>
       </defs>
       <use transform="translate(0 0.015625)" xlink:href="#DejaVuSans-53"/>
       <use transform="translate(63.623047 0.015625)" xlink:href="#DejaVuSans-56"/>
       <use transform="translate(127.246094 0.015625)" xlink:href="#DejaVuSans-46"/>
       <use transform="translate(159.033203 0.015625)" xlink:href="#DejaVuSans-51"/>
       <use transform="translate(222.65625 0.015625)" xlink:href="#DejaVuSans-53"/>
       <use transform="translate(286.279297 0.015625)" xlink:href="#DejaVuSans-32"/>
       <use transform="translate(318.066406 0.015625)" xlink:href="#DejaVuSans-61"/>
       <use transform="translate(401.855469 0.015625)" xlink:href="#DejaVuSans-32"/>
       <use transform="translate(433.642578 0.015625)" xlink:href="#DejaVuSans-Oblique-100"/>
       <use transform="translate(497.119141 -16.390625)scale(0.7)" xlink:href="#DejaVuSans-49"/>
      </g>
     </g>
    </g>
    <g id="ytick_3">
     <g id="text_10">
      <!-- 69.45 = $d_3$ -->
      <g style="fill:#999999;" transform="translate(7.2 206.411558)scale(0.13 -0.13)">
       <defs>
        <path d="M 10.984375 1.515625 
L 10.984375 10.5 
Q 14.703125 8.734375 18.5 7.8125 
Q 22.3125 6.890625 25.984375 6.890625 
Q 35.75 6.890625 40.890625 13.453125 
Q 46.046875 20.015625 46.78125 33.40625 
Q 43.953125 29.203125 39.59375 26.953125 
Q 35.25 24.703125 29.984375 24.703125 
Q 19.046875 24.703125 12.671875 31.3125 
Q 6.296875 37.9375 6.296875 49.421875 
Q 6.296875 60.640625 12.9375 67.421875 
Q 19.578125 74.21875 30.609375 74.21875 
Q 43.265625 74.21875 49.921875 64.515625 
Q 56.59375 54.828125 56.59375 36.375 
Q 56.59375 19.140625 48.40625 8.859375 
Q 40.234375 -1.421875 26.421875 -1.421875 
Q 22.703125 -1.421875 18.890625 -0.6875 
Q 15.09375 0.046875 10.984375 1.515625 
z
M 30.609375 32.421875 
Q 37.25 32.421875 41.125 36.953125 
Q 45.015625 41.5 45.015625 49.421875 
Q 45.015625 57.28125 41.125 61.84375 
Q 37.25 66.40625 30.609375 66.40625 
Q 23.96875 66.40625 20.09375 61.84375 
Q 16.21875 57.28125 16.21875 49.421875 
Q 16.21875 41.5 20.09375 36.953125 
Q 23.96875 32.421875 30.609375 32.421875 
z
" id="DejaVuSans-57"/>
       </defs>
       <use transform="translate(0 0.015625)" xlink:href="#DejaVuSans-54"/>
       <use transform="translate(63.623047 0.015625)" xlink:href="#DejaVuSans-57"/>
       <use transform="translate(127.246094 0.015625)" xlink:href="#DejaVuSans-46"/>
       <use transform="translate(159.033203 0.015625)" xlink:href="#DejaVuSans-52"/>
       <use transform="translate(222.65625 0.015625)" xlink:href="#DejaVuSans-53"/>
       <use transform="translate(286.279297 0.015625)" xlink:href="#DejaVuSans-32"/>
       <use transform="translate(318.066406 0.015625)" xlink:href="#DejaVuSans-61"/>
       <use transform="translate(401.855469 0.015625)" xlink:href="#DejaVuSans-32"/>
       <use transform="translate(433.642578 0.015625)" xlink:href="#DejaVuSans-Oblique-100"/>
       <use transform="translate(497.119141 -16.390625)scale(0.7)" xlink:href="#DejaVuSans-51"/>
      </g>
     </g>
    </g>
    <g id="ytick_4">
     <g id="text_11">
      <!-- 31.83 = $v_2$ -->
      <g style="fill:#999999;" transform="translate(8.11 169.352734)scale(0.13 -0.13)">
       <use transform="translate(0 0.78125)" xlink:href="#DejaVuSans-51"/>
       <use transform="translate(63.623047 0.78125)" xlink:href="#DejaVuSans-49"/>
       <use transform="translate(127.246094 0.78125)" xlink:href="#DejaVuSans-46"/>
       <use transform="translate(156.408203 0.78125)" xlink:href="#DejaVuSans-56"/>
       <use transform="translate(220.03125 0.78125)" xlink:href="#DejaVuSans-51"/>
       <use transform="translate(283.654297 0.78125)" xlink:href="#DejaVuSans-32"/>
       <use transform="translate(315.441406 0.78125)" xlink:href="#DejaVuSans-61"/>
       <use transform="translate(399.230469 0.78125)" xlink:href="#DejaVuSans-32"/>
       <use transform="translate(431.017578 0.78125)" xlink:href="#DejaVuSans-Oblique-118"/>
       <use transform="translate(490.197266 -15.625)scale(0.7)" xlink:href="#DejaVuSans-50"/>
      </g>
     </g>
    </g>
    <g id="ytick_5">
     <g id="text_12">
      <!-- 27.73 = $v_0$ -->
      <g style="fill:#999999;" transform="translate(8.76 132.293911)scale(0.13 -0.13)">
       <use transform="translate(0 0.78125)" xlink:href="#DejaVuSans-50"/>
       <use transform="translate(63.623047 0.78125)" xlink:href="#DejaVuSans-55"/>
       <use transform="translate(127.246094 0.78125)" xlink:href="#DejaVuSans-46"/>
       <use transform="translate(151.283203 0.78125)" xlink:href="#DejaVuSans-55"/>
       <use transform="translate(214.90625 0.78125)" xlink:href="#DejaVuSans-51"/>
       <use transform="translate(278.529297 0.78125)" xlink:href="#DejaVuSans-32"/>
       <use transform="translate(310.316406 0.78125)" xlink:href="#DejaVuSans-61"/>
       <use transform="translate(394.105469 0.78125)" xlink:href="#DejaVuSans-32"/>
       <use transform="translate(425.892578 0.78125)" xlink:href="#DejaVuSans-Oblique-118"/>
       <use transform="translate(485.072266 -15.625)scale(0.7)" xlink:href="#DejaVuSans-48"/>
      </g>
     </g>
    </g>
    <g id="ytick_6">
     <g id="text_13">
      <!-- 22.2 = $d_2$ -->
      <g style="fill:#999999;" transform="translate(16.17 95.235087)scale(0.13 -0.13)">
       <use transform="translate(0 0.015625)" xlink:href="#DejaVuSans-50"/>
       <use transform="translate(63.623047 0.015625)" xlink:href="#DejaVuSans-50"/>
       <use transform="translate(127.246094 0.015625)" xlink:href="#DejaVuSans-46"/>
       <use transform="translate(153.533203 0.015625)" xlink:href="#DejaVuSans-50"/>
       <use transform="translate(217.15625 0.015625)" xlink:href="#DejaVuSans-32"/>
       <use transform="translate(248.943359 0.015625)" xlink:href="#DejaVuSans-61"/>
       <use transform="translate(332.732422 0.015625)" xlink:href="#DejaVuSans-32"/>
       <use transform="translate(364.519531 0.015625)" xlink:href="#DejaVuSans-Oblique-100"/>
       <use transform="translate(427.996094 -16.390625)scale(0.7)" xlink:href="#DejaVuSans-50"/>
      </g>
     </g>
    </g>
    <g id="ytick_7">
     <g id="text_14">
      <!-- 23.54 = $v_1$ -->
      <g style="fill:#999999;" transform="translate(7.72 58.176264)scale(0.13 -0.13)">
       <use transform="translate(0 0.78125)" xlink:href="#DejaVuSans-50"/>
       <use transform="translate(63.623047 0.78125)" xlink:href="#DejaVuSans-51"/>
       <use transform="translate(127.246094 0.78125)" xlink:href="#DejaVuSans-46"/>
       <use transform="translate(159.033203 0.78125)" xlink:href="#DejaVuSans-53"/>
       <use transform="translate(222.65625 0.78125)" xlink:href="#DejaVuSans-52"/>
       <use transform="translate(286.279297 0.78125)" xlink:href="#DejaVuSans-32"/>
       <use transform="translate(318.066406 0.78125)" xlink:href="#DejaVuSans-61"/>
       <use transform="translate(401.855469 0.78125)" xlink:href="#DejaVuSans-32"/>
       <use transform="translate(433.642578 0.78125)" xlink:href="#DejaVuSans-Oblique-118"/>
       <use transform="translate(492.822266 -15.625)scale(0.7)" xlink:href="#DejaVuSans-49"/>
      </g>
     </g>
    </g>
    <g id="ytick_8">
     <g id="text_15">
      <!--  $v_3$ -->
      <g transform="translate(59.98 280.529205)scale(0.13 -0.13)">
       <use transform="translate(0 0.3125)" xlink:href="#DejaVuSans-32"/>
       <use transform="translate(31.787109 0.3125)" xlink:href="#DejaVuSans-Oblique-118"/>
       <use transform="translate(90.966797 -16.09375)scale(0.7)" xlink:href="#DejaVuSans-51"/>
      </g>
     </g>
    </g>
    <g id="ytick_9">
     <g id="text_16">
      <!--  $d_1$ -->
      <g transform="translate(59.46 243.470381)scale(0.13 -0.13)">
       <use transform="translate(0 0.015625)" xlink:href="#DejaVuSans-32"/>
       <use transform="translate(31.787109 0.015625)" xlink:href="#DejaVuSans-Oblique-100"/>
       <use transform="translate(95.263672 -16.390625)scale(0.7)" xlink:href="#DejaVuSans-49"/>
      </g>
     </g>
    </g>
    <g id="ytick_10">
     <g id="text_17">
      <!--  $d_3$ -->
      <g transform="translate(59.46 206.411558)scale(0.13 -0.13)">
       <use transform="translate(0 0.015625)" xlink:href="#DejaVuSans-32"/>
       <use transform="translate(31.787109 0.015625)" xlink:href="#DejaVuSans-Oblique-100"/>
       <use transform="translate(95.263672 -16.390625)scale(0.7)" xlink:href="#DejaVuSans-51"/>
      </g>
     </g>
    </g>
    <g id="ytick_11">
     <g id="text_18">
      <!--  $v_2$ -->
      <g transform="translate(59.98 169.352734)scale(0.13 -0.13)">
       <use transform="translate(0 0.3125)" xlink:href="#DejaVuSans-32"/>
       <use transform="translate(31.787109 0.3125)" xlink:href="#DejaVuSans-Oblique-118"/>
       <use transform="translate(90.966797 -16.09375)scale(0.7)" xlink:href="#DejaVuSans-50"/>
      </g>
     </g>
    </g>
    <g id="ytick_12">
     <g id="text_19">
      <!--  $v_0$ -->
      <g transform="translate(59.98 132.29391)scale(0.13 -0.13)">
       <use transform="translate(0 0.3125)" xlink:href="#DejaVuSans-32"/>
       <use transform="translate(31.787109 0.3125)" xlink:href="#DejaVuSans-Oblique-118"/>
       <use transform="translate(90.966797 -16.09375)scale(0.7)" xlink:href="#DejaVuSans-48"/>
      </g>
     </g>
    </g>
    <g id="ytick_13">
     <g id="text_20">
      <!--  $d_2$ -->
      <g transform="translate(59.46 95.235087)scale(0.13 -0.13)">
       <use transform="translate(0 0.015625)" xlink:href="#DejaVuSans-32"/>
       <use transform="translate(31.787109 0.015625)" xlink:href="#DejaVuSans-Oblique-100"/>
       <use transform="translate(95.263672 -16.390625)scale(0.7)" xlink:href="#DejaVuSans-50"/>
      </g>
     </g>
    </g>
    <g id="ytick_14">
     <g id="text_21">
      <!--  $v_1$ -->
      <g transform="translate(59.98 58.176263)scale(0.13 -0.13)">
       <use transform="translate(0 0.3125)" xlink:href="#DejaVuSans-32"/>
       <use transform="translate(31.787109 0.3125)" xlink:href="#DejaVuSans-Oblique-118"/>
       <use transform="translate(90.966797 -16.09375)scale(0.7)" xlink:href="#DejaVuSans-49"/>
      </g>
     </g>
    </g>
   </g>
   <g id="patch_17">
    <path d="M 85.05 303.01375 
L 531.45 303.01375 
" style="fill:none;stroke:#000000;stroke-linecap:square;stroke-linejoin:miter;stroke-width:0.8;"/>
   </g>
   <g id="text_22">
    <!-- +0.11 -->
    <g style="fill:#ffffff;" transform="translate(410.233684 167.725)scale(0.12 -0.12)">
     <defs>
      <path d="M 46 62.703125 
L 46 35.5 
L 73.1875 35.5 
L 73.1875 27.203125 
L 46 27.203125 
L 46 0 
L 37.796875 0 
L 37.796875 27.203125 
L 10.59375 27.203125 
L 10.59375 35.5 
L 37.796875 35.5 
L 37.796875 62.703125 
z
" id="DejaVuSans-43"/>
     </defs>
     <use xlink:href="#DejaVuSans-43"/>
     <use x="83.789062" xlink:href="#DejaVuSans-48"/>
     <use x="147.412109" xlink:href="#DejaVuSans-46"/>
     <use x="179.199219" xlink:href="#DejaVuSans-49"/>
     <use x="242.822266" xlink:href="#DejaVuSans-49"/>
    </g>
   </g>
   <g id="text_23">
    <!-- +0.01 -->
    <g style="fill:#ff0051;" transform="translate(479.568925 278.901471)scale(0.12 -0.12)">
     <use xlink:href="#DejaVuSans-43"/>
     <use x="83.789062" xlink:href="#DejaVuSans-48"/>
     <use x="147.412109" xlink:href="#DejaVuSans-46"/>
     <use x="179.199219" xlink:href="#DejaVuSans-48"/>
     <use x="242.822266" xlink:href="#DejaVuSans-49"/>
    </g>
   </g>
   <g id="text_24">
    <!-- −0.18 -->
    <g style="fill:#ffffff;" transform="translate(185.211231 56.548529)scale(0.12 -0.12)">
     <defs>
      <path d="M 10.59375 35.5 
L 73.1875 35.5 
L 73.1875 27.203125 
L 10.59375 27.203125 
z
" id="DejaVuSans-8722"/>
     </defs>
     <use xlink:href="#DejaVuSans-8722"/>
     <use x="83.789062" xlink:href="#DejaVuSans-48"/>
     <use x="147.412109" xlink:href="#DejaVuSans-46"/>
     <use x="179.199219" xlink:href="#DejaVuSans-49"/>
     <use x="242.822266" xlink:href="#DejaVuSans-56"/>
    </g>
   </g>
   <g id="text_25">
    <!-- −0.16 -->
    <g style="fill:#ffffff;" transform="translate(299.907316 93.607353)scale(0.12 -0.12)">
     <use xlink:href="#DejaVuSans-8722"/>
     <use x="83.789062" xlink:href="#DejaVuSans-48"/>
     <use x="147.412109" xlink:href="#DejaVuSans-46"/>
     <use x="179.199219" xlink:href="#DejaVuSans-49"/>
     <use x="242.822266" xlink:href="#DejaVuSans-54"/>
    </g>
   </g>
   <g id="text_26">
    <!-- −0.14 -->
    <g style="fill:#ffffff;" transform="translate(399.92579 130.666176)scale(0.12 -0.12)">
     <use xlink:href="#DejaVuSans-8722"/>
     <use x="83.789062" xlink:href="#DejaVuSans-48"/>
     <use x="147.412109" xlink:href="#DejaVuSans-46"/>
     <use x="179.199219" xlink:href="#DejaVuSans-49"/>
     <use x="242.822266" xlink:href="#DejaVuSans-52"/>
    </g>
   </g>
   <g id="text_27">
    <!-- −0.06 -->
    <g style="fill:#ffffff;" transform="translate(394.667614 204.783824)scale(0.12 -0.12)">
     <use xlink:href="#DejaVuSans-8722"/>
     <use x="83.789062" xlink:href="#DejaVuSans-48"/>
     <use x="147.412109" xlink:href="#DejaVuSans-46"/>
     <use x="179.199219" xlink:href="#DejaVuSans-48"/>
     <use x="242.822266" xlink:href="#DejaVuSans-54"/>
    </g>
   </g>
   <g id="text_28">
    <!-- −0.06 -->
    <g style="fill:#ffffff;" transform="translate(435.982558 241.842647)scale(0.12 -0.12)">
     <use xlink:href="#DejaVuSans-8722"/>
     <use x="83.789062" xlink:href="#DejaVuSans-48"/>
     <use x="147.412109" xlink:href="#DejaVuSans-46"/>
     <use x="179.199219" xlink:href="#DejaVuSans-48"/>
     <use x="242.822266" xlink:href="#DejaVuSans-54"/>
    </g>
   </g>
  </g>
  <g id="axes_2">
   <g id="matplotlib.axis_3">
    <g id="xtick_8">
     <g id="line2d_20">
      <g>
       <use style="stroke:#000000;stroke-width:0.8;" x="465.08117" xlink:href="#m7c7223fec1" y="303.01375"/>
      </g>
     </g>
     <g id="text_29">
      <!--  -->
      <g transform="translate(445.08117 319.131875)scale(0.12 -0.12)"/>
      <!-- $E[f(X)]$ -->
      <g transform="translate(445.08117 332.56925)scale(0.12 -0.12)">
       <defs>
        <path d="M 16.890625 72.90625 
L 62.984375 72.90625 
L 61.375 64.59375 
L 25.09375 64.59375 
L 20.90625 43.015625 
L 55.71875 43.015625 
L 54.109375 34.71875 
L 19.28125 34.71875 
L 14.203125 8.296875 
L 51.3125 8.296875 
L 49.703125 0 
L 2.6875 0 
z
" id="DejaVuSans-Oblique-69"/>
        <path d="M 8.59375 75.984375 
L 29.296875 75.984375 
L 29.296875 69 
L 17.578125 69 
L 17.578125 -6.203125 
L 29.296875 -6.203125 
L 29.296875 -13.1875 
L 8.59375 -13.1875 
z
" id="DejaVuSans-91"/>
        <path d="M 47.796875 75.984375 
L 46.390625 68.5 
L 37.796875 68.5 
Q 32.90625 68.5 30.6875 66.578125 
Q 28.46875 64.65625 27.390625 59.515625 
L 26.421875 54.6875 
L 41.21875 54.6875 
L 39.890625 47.703125 
L 25.09375 47.703125 
L 15.828125 0 
L 6.78125 0 
L 16.109375 47.703125 
L 7.515625 47.703125 
L 8.796875 54.6875 
L 17.390625 54.6875 
L 18.109375 58.5 
Q 19.96875 68.171875 24.625 72.078125 
Q 29.296875 75.984375 39.3125 75.984375 
z
" id="DejaVuSans-Oblique-102"/>
        <path d="M 31 75.875 
Q 24.46875 64.65625 21.28125 53.65625 
Q 18.109375 42.671875 18.109375 31.390625 
Q 18.109375 20.125 21.3125 9.0625 
Q 24.515625 -2 31 -13.1875 
L 23.1875 -13.1875 
Q 15.875 -1.703125 12.234375 9.375 
Q 8.59375 20.453125 8.59375 31.390625 
Q 8.59375 42.28125 12.203125 53.3125 
Q 15.828125 64.359375 23.1875 75.875 
z
" id="DejaVuSans-40"/>
        <path d="M 13.71875 72.90625 
L 23.6875 72.90625 
L 36.1875 46.578125 
L 58.796875 72.90625 
L 70.3125 72.90625 
L 40.28125 38.09375 
L 58.40625 0 
L 48.484375 0 
L 33.796875 30.71875 
L 7.171875 0 
L -4.296875 0 
L 29.78125 39.203125 
z
" id="DejaVuSans-Oblique-88"/>
        <path d="M 8.015625 75.875 
L 15.828125 75.875 
Q 23.140625 64.359375 26.78125 53.3125 
Q 30.421875 42.28125 30.421875 31.390625 
Q 30.421875 20.453125 26.78125 9.375 
Q 23.140625 -1.703125 15.828125 -13.1875 
L 8.015625 -13.1875 
Q 14.5 -2 17.703125 9.0625 
Q 20.90625 20.125 20.90625 31.390625 
Q 20.90625 42.671875 17.703125 53.65625 
Q 14.5 64.65625 8.015625 75.875 
z
" id="DejaVuSans-41"/>
        <path d="M 30.421875 75.984375 
L 30.421875 -13.1875 
L 9.71875 -13.1875 
L 9.71875 -6.203125 
L 21.390625 -6.203125 
L 21.390625 69 
L 9.71875 69 
L 9.71875 75.984375 
z
" id="DejaVuSans-93"/>
       </defs>
       <use transform="translate(0 0.015625)" xlink:href="#DejaVuSans-Oblique-69"/>
       <use transform="translate(63.183594 0.015625)" xlink:href="#DejaVuSans-91"/>
       <use transform="translate(102.197266 0.015625)" xlink:href="#DejaVuSans-Oblique-102"/>
       <use transform="translate(137.402344 0.015625)" xlink:href="#DejaVuSans-40"/>
       <use transform="translate(176.416016 0.015625)" xlink:href="#DejaVuSans-Oblique-88"/>
       <use transform="translate(244.921875 0.015625)" xlink:href="#DejaVuSans-41"/>
       <use transform="translate(283.935547 0.015625)" xlink:href="#DejaVuSans-93"/>
      </g>
     </g>
    </g>
    <g id="xtick_9">
     <g id="line2d_21">
      <g>
       <use style="stroke:#000000;stroke-width:0.8;" x="465.081176" xlink:href="#m7c7223fec1" y="303.01375"/>
      </g>
     </g>
     <g id="text_30">
      <!--  -->
      <g style="fill:#999999;" transform="translate(487.081176 320.131875)scale(0.12 -0.12)"/>
      <!-- $ = 0.501$ -->
      <g style="fill:#999999;" transform="translate(487.081176 333.56925)scale(0.12 -0.12)">
       <use transform="translate(19.482422 0.78125)" xlink:href="#DejaVuSans-61"/>
       <use transform="translate(122.753906 0.78125)" xlink:href="#DejaVuSans-48"/>
       <use transform="translate(186.376953 0.78125)" xlink:href="#DejaVuSans-46"/>
       <use transform="translate(218.164062 0.78125)" xlink:href="#DejaVuSans-53"/>
       <use transform="translate(281.787109 0.78125)" xlink:href="#DejaVuSans-48"/>
       <use transform="translate(345.410156 0.78125)" xlink:href="#DejaVuSans-49"/>
      </g>
     </g>
    </g>
   </g>
   <g id="patch_18">
    <path d="M 85.05 303.01375 
L 531.45 303.01375 
" style="fill:none;stroke:#000000;stroke-linecap:square;stroke-linejoin:miter;stroke-width:0.8;"/>
   </g>
  </g>
  <g id="axes_3">
   <g id="matplotlib.axis_4">
    <g id="xtick_10">
     <g id="line2d_22">
      <defs>
       <path d="M 0 0 
L 0 -3.5 
" id="ma9e9b64f5b" style="stroke:#000000;stroke-width:0.8;"/>
      </defs>
      <g>
       <use style="stroke:#000000;stroke-width:0.8;" x="141.931075" xlink:href="#ma9e9b64f5b" y="25.81375"/>
      </g>
     </g>
     <g id="text_31">
      <!-- $f(x)$ -->
      <g transform="translate(131.931075 16.318125)scale(0.12 -0.12)">
       <defs>
        <path d="M 60.015625 54.6875 
L 34.90625 27.875 
L 50.296875 0 
L 39.984375 0 
L 28.421875 21.6875 
L 8.296875 0 
L -2.59375 0 
L 24.3125 28.8125 
L 10.015625 54.6875 
L 20.3125 54.6875 
L 30.8125 34.90625 
L 49.125 54.6875 
z
" id="DejaVuSans-Oblique-120"/>
       </defs>
       <use transform="translate(0 0.015625)" xlink:href="#DejaVuSans-Oblique-102"/>
       <use transform="translate(35.205078 0.015625)" xlink:href="#DejaVuSans-40"/>
       <use transform="translate(74.21875 0.015625)" xlink:href="#DejaVuSans-Oblique-120"/>
       <use transform="translate(133.398438 0.015625)" xlink:href="#DejaVuSans-41"/>
      </g>
     </g>
    </g>
    <g id="xtick_11">
     <g id="line2d_23">
      <g>
       <use style="stroke:#000000;stroke-width:0.8;" x="141.931081" xlink:href="#ma9e9b64f5b" y="25.81375"/>
      </g>
     </g>
     <g id="text_32">
      <!-- $ = 0.016$ -->
      <g style="fill:#999999;" transform="translate(153.931081 16.318125)scale(0.12 -0.12)">
       <use transform="translate(19.482422 0.78125)" xlink:href="#DejaVuSans-61"/>
       <use transform="translate(122.753906 0.78125)" xlink:href="#DejaVuSans-48"/>
       <use transform="translate(186.376953 0.78125)" xlink:href="#DejaVuSans-46"/>
       <use transform="translate(218.164062 0.78125)" xlink:href="#DejaVuSans-48"/>
       <use transform="translate(281.787109 0.78125)" xlink:href="#DejaVuSans-49"/>
       <use transform="translate(345.410156 0.78125)" xlink:href="#DejaVuSans-54"/>
      </g>
     </g>
    </g>
   </g>
   <g id="patch_19">
    <path d="M 85.05 303.01375 
L 531.45 303.01375 
" style="fill:none;stroke:#000000;stroke-linecap:square;stroke-linejoin:miter;stroke-width:0.8;"/>
   </g>
  </g>
 </g>
 <defs>
  <clipPath id="pa753674aa5">
   <rect height="277.2" width="446.4" x="85.05" y="25.81375"/>
  </clipPath>
 </defs>
</svg>
